<?xml version="1.0" encoding="UTF-8"?>
<svg width="352px" height="284px" viewBox="0 0 352 284" version="1.1" xmlns="http://www.w3.org/2000/svg" xmlns:xlink="http://www.w3.org/1999/xlink">
    <!-- Generator: Sketch 51 (57462) - http://www.bohemiancoding.com/sketch -->
    <title>book</title>
    <desc>Created with Sketch.</desc>
    <defs></defs>
    <g id="Page-1" stroke="none" stroke-width="1" fill="none" fill-rule="evenodd">
        <g id="book" fill-rule="nonzero">
            <path d="M344,20 L8,20 C3.6,20 0,23.6 0,28 L0,260 C0,264.4 3.6,268 8,268 L148,268 C148,276.836 160.54,284 176,284 C191.46,284 204,276.836 204,268 L344,268 C348.4,268 352,264.4 352,260 L352,28 C352,23.6 348.4,20 344,20 Z" id="Shape" fill="#D7E1E5"></path>
            <rect id="Rectangle-path" fill="#7C8491" x="184" y="20" width="160" height="236"></rect>
            <path d="M344,260 L204,260 C204,268.836 191.46,276 176,276 C160.54,276 148,268.836 148,260 L8,260 C3.6,260 0,256.4 0,252 L0,260 C0,264.4 3.6,268 8,268 L148,268 C148,276.836 160.54,284 176,284 C191.46,284 204,276.836 204,268 L344,268 C348.4,268 352,264.4 352,260 L352,252 C352,256.4 348.4,260 344,260 Z" id="Shape" fill="#7C8491"></path>
            <path d="M108,0 C63.816,0 36,8 16,12 L16,252 L176,252 L176,12 C172,8 152.184,0 108,0 Z" id="Shape" fill="#2C3646"></path>
            <path d="M176,252 C176,240.956 152.184,232 108,232 C63.816,232 24,244 16,252 L176,252 Z" id="Shape" fill="#D7E1E5"></path>
            <path d="M244,0 C288.184,0 316,8 336,12 L336,252 L176,252 L176,12 C180,8 199.816,0 244,0 Z" id="Shape" fill="#2C3646"></path>
            <path d="M176,252 C176,240.956 199.816,232 244,232 C288.184,232 328,244 336,252 L176,252 Z" id="Shape" fill="#D7E1E5"></path>
            <path d="M176,228 L176,12 C173.416,9.408 164.116,5.148 145.928,2.464 L176,228 Z" id="Shape" fill="#D7E1E5"></path>
            <rect id="Rectangle-path" fill="#7C8491" x="20" y="252" width="164" height="4"></rect>
            <g id="Group" transform="translate(36.000000, 18.000000)" fill="#D7E1E5">
                <path d="M284,34 C241.332,34 198.668,34 156,34 C156,22.8 156,17.2 156,6 C202.728,-1.228 237.272,-1.232 284,6 C284,17.2 284,22.8 284,34 Z" id="Shape"></path>
                <rect id="Rectangle-path" x="176" y="54" width="108" height="8"></rect>
                <rect id="Rectangle-path" x="156" y="70" width="128" height="8"></rect>
                <rect id="Rectangle-path" x="156" y="86" width="128" height="8"></rect>
                <rect id="Rectangle-path" x="156" y="102" width="128" height="8"></rect>
                <rect id="Rectangle-path" x="156" y="118" width="128" height="8"></rect>
                <rect id="Rectangle-path" x="156" y="134" width="128" height="8"></rect>
                <rect id="Rectangle-path" x="156" y="150" width="128" height="8"></rect>
                <rect id="Rectangle-path" x="156" y="166" width="128" height="8"></rect>
                <rect id="Rectangle-path" x="156" y="182" width="108" height="8"></rect>
                <rect id="Rectangle-path" x="20" y="10" width="108" height="8"></rect>
                <rect id="Rectangle-path" x="0" y="26" width="128" height="8"></rect>
                <rect id="Rectangle-path" x="0" y="42" width="128" height="8"></rect>
                <rect id="Rectangle-path" x="0" y="58" width="128" height="8"></rect>
                <rect id="Rectangle-path" x="0" y="74" width="128" height="8"></rect>
                <rect id="Rectangle-path" x="0" y="90" width="128" height="8"></rect>
                <rect id="Rectangle-path" x="0" y="106" width="128" height="8"></rect>
                <rect id="Rectangle-path" x="0" y="122" width="128" height="8"></rect>
                <rect id="Rectangle-path" x="0" y="138" width="108" height="8"></rect>
            </g>
        </g>
    </g>
</svg>